<svg width="195" height="171" viewBox="0 0 195 171" fill="none" xmlns="http://www.w3.org/2000/svg">
<path d="M179.145 137C180.17 137 181.05 137.617 181.436 138.5H181.438L193.274 159C196.16 164 192.552 170.25 186.778 170.25H7.5109C1.73779 170.25 -1.87056 164 1.01579 159L12.8517 138.5H12.8537C13.2394 137.617 14.1196 137 15.1447 137H179.145ZM5.34586 161.5C4.38403 163.166 5.58683 165.25 7.5109 165.25H186.778C188.703 165.25 189.905 163.166 188.944 161.5L177.685 142H16.6047L5.34586 161.5ZM157.045 98.9999C158.07 99.0001 158.95 99.6172 159.336 100.5H159.498L172.778 123.5H172.736C172.869 123.806 172.944 124.144 172.944 124.5C172.944 125.88 171.825 127 170.444 127H23.8449C22.4643 127 21.345 125.881 21.3449 124.5C21.3449 124.144 21.42 123.806 21.5539 123.5H21.5119L34.7912 100.5H34.8537C35.2395 99.617 36.1196 99 37.1447 98.9999H157.045ZM28.1515 122H166.138L155.745 104H38.5441L28.1515 122ZM135.245 60.9999C136.27 61.0001 137.151 61.6171 137.536 62.4999H137.559L150.575 85.0458C150.671 85.1785 150.753 85.3202 150.821 85.4706L150.838 85.4999H150.835C150.969 85.8062 151.045 86.1442 151.045 86.4999C151.045 87.8804 149.926 88.9997 148.545 88.9999H45.7453C44.3646 88.9999 43.2454 87.8805 43.2453 86.4999C43.2453 86.1442 43.3204 85.8062 43.4543 85.4999H43.4513L43.4689 85.4687C43.5367 85.3192 43.6184 85.1778 43.7131 85.0458L56.7306 62.4999H56.7541C57.1399 61.6171 58.02 60.9999 59.0451 60.9999H135.245ZM50.091 83.9999H144.198L133.806 65.9999H60.4836L50.091 83.9999ZM90.6496 3.74991C93.5363 -1.25003 100.753 -1.24991 103.64 3.74991L128.899 47.4999H128.836C128.97 47.8062 129.045 48.1443 129.045 48.4999C129.045 49.8804 127.926 50.9997 126.545 50.9999H67.6447C66.2641 50.9998 65.1448 49.8804 65.1447 48.4999C65.1447 47.8726 65.3773 47.3002 65.7589 46.8612L90.6496 3.74991ZM99.3097 6.24991C98.3474 4.58337 95.9419 4.5833 94.9797 6.24991L72.0304 45.9999H122.259L99.3097 6.24991Z" fill="white"/>
</svg>
