<svg width="269" height="235" viewBox="0 0 269 235" fill="none" xmlns="http://www.w3.org/2000/svg">
<path d="M236.654 175C238.704 175 240.465 176.234 241.237 178H242.117L267.088 221.25C270.552 227.25 266.222 234.75 259.294 234.75H9.01292L8.68968 234.744C1.95152 234.515 -2.19042 227.156 1.21898 221.25L25.8625 178.565C26.479 176.503 28.3907 175 30.6535 175H236.654ZM10.7453 224.75H257.562L234.612 185H33.6955L10.7453 224.75ZM193.654 98.9998C196.073 98.9998 198.09 100.717 198.553 103H198.817L230.571 158H230.053C230.119 158.323 230.154 158.657 230.154 159C230.153 161.761 227.915 164 225.154 164H42.6535C39.8924 164 37.6538 161.761 37.6535 159C37.6535 158.657 37.6886 158.323 37.7541 158H37.7366L37.7639 157.951C37.9867 156.907 38.5357 155.983 39.2991 155.292L69.4905 103H69.7541C70.2173 100.718 72.2346 99 74.6535 98.9998H193.654ZM51.593 154H216.714L190.734 109H77.5735L51.593 154ZM126.36 4.49984C129.824 -1.49996 138.483 -1.49993 141.947 4.49984L187.27 82.9998H186.753C186.819 83.3229 186.854 83.6575 186.854 83.9998C186.854 86.761 184.615 88.9997 181.854 88.9998H85.6535C82.8924 88.9997 80.6538 86.761 80.6535 83.9998C80.6535 82.2774 81.5243 80.7575 82.8498 79.8582L126.36 4.49984ZM94.8938 78.9998H173.413L134.154 10.9998L94.8938 78.9998Z" fill="white"/>
</svg>
