<svg width="42" height="40" viewBox="0 0 42 40" fill="none" xmlns="http://www.w3.org/2000/svg">
<path d="M23.6006 18.7441H22.7041L21.6807 15.1924C21.6167 14.9151 21.5414 14.7229 21.4561 14.6162C21.3921 14.4882 21.2534 14.4129 21.04 14.3916C20.8267 14.3703 20.464 14.3604 19.9521 14.3604H16.7197V32.3115C16.7197 33.0369 16.7524 33.4747 16.8164 33.624C16.8804 33.7519 17.0828 33.8372 17.4238 33.8799L19.1846 34.1035V35H10.416V34.1035L12.1758 33.8799C12.5171 33.8372 12.7202 33.752 12.7842 33.624C12.8482 33.4747 12.8799 33.0369 12.8799 32.3115V14.3604H9.64844C9.15803 14.3604 8.79522 14.3703 8.56055 14.3916C8.34721 14.4129 8.20853 14.4882 8.14453 14.6162C8.08053 14.7229 8.00525 14.9151 7.91992 15.1924L6.89648 18.7441H6V13.2402H23.6006V18.7441ZM22.958 30.5244L19.8975 33.0498L20.7393 29.1719L22.958 30.5244ZM38.1787 5.55957L24.1787 28.5596L21.6162 27L35.6162 4L38.1787 5.55957Z" fill="white"/>
</svg>
