<svg width="192" height="192" viewBox="0 0 192 192" fill="none" xmlns="http://www.w3.org/2000/svg">
<path d="M88.7037 19.9944C92.6234 16.0019 99.0566 16.0019 102.976 19.9944L112.573 29.7708C114.861 32.1012 118.143 33.1676 121.364 32.6272L134.875 30.3587C140.392 29.4326 145.596 33.2144 146.421 38.7483L148.439 52.2981C148.92 55.5284 150.949 58.3198 153.873 59.7756L166.135 65.8821C171.144 68.3761 173.131 74.4948 170.546 79.4563L164.214 91.6038C162.704 94.5001 162.704 97.9516 164.214 100.848L170.546 112.996C173.131 117.958 171.144 124.076 166.135 126.57L153.873 132.676C150.949 134.132 148.92 136.924 148.439 140.155L146.421 153.704C145.596 159.238 140.392 163.019 134.875 162.093L121.364 159.825C118.143 159.285 114.861 160.351 112.573 162.682L102.976 172.457C99.0566 176.45 92.6234 176.45 88.7037 172.457L79.1071 162.682C76.819 160.351 73.537 159.285 70.316 159.825L56.8053 162.093C51.2877 163.019 46.0839 159.238 45.2594 153.704L43.2409 140.155C42.7597 136.924 40.7317 134.132 37.8082 132.676L25.5446 126.57C20.5365 124.076 18.5488 117.958 21.1344 112.996L27.4664 100.848C28.976 97.9516 28.976 94.5001 27.4664 91.6038L21.1344 79.4563C18.5485 74.4948 20.5363 68.3761 25.5446 65.8821L37.8082 59.7756C40.7315 58.3198 42.7596 55.5282 43.2409 52.2981L45.2594 38.7483C46.0837 33.2145 51.2876 29.4327 56.8053 30.3587L70.316 32.6272C73.5369 33.1677 76.8191 32.1012 79.1071 29.7708L88.7037 19.9944ZM95.8405 60.7258C76.2344 60.7258 60.3405 76.6198 60.3405 96.2258C60.3405 115.832 76.2344 131.726 95.8405 131.726C115.446 131.726 131.34 115.832 131.34 96.2258C131.34 76.6199 115.446 60.7261 95.8405 60.7258Z" fill="white"/>
</svg>
