<svg width="256" height="256" viewBox="0 0 256 256" fill="none" xmlns="http://www.w3.org/2000/svg">
<path d="M128 40.5C145.988 40.5 162.707 45.9291 176.611 55.2363L166.076 66.293C155.01 59.4502 141.967 55.5 128 55.5C87.9594 55.5 55.5 87.9594 55.5 128C55.5 168.041 87.9594 200.5 128 200.5C168.041 200.5 200.5 168.041 200.5 128C200.5 112.779 195.808 98.6537 187.793 86.9902L198.328 75.9336C209.117 90.4828 215.5 108.496 215.5 128C215.5 176.325 176.325 215.5 128 215.5C79.6751 215.5 40.5 176.325 40.5 128C40.5 79.6751 79.6751 40.5 128 40.5Z" fill="white"/>
<path d="M229 22L128 128" stroke="white" stroke-width="15" stroke-linecap="round"/>
<circle cx="127.5" cy="127.5" r="31.5" fill="white"/>
</svg>
