<svg width="60" height="66" viewBox="0 0 60 66" fill="none" xmlns="http://www.w3.org/2000/svg">
<path d="M32 3H50L50.5146 3.0127C55.7983 3.28054 60 7.64975 60 13V53L59.9873 53.5146C59.7281 58.6279 55.6279 62.7281 50.5146 62.9873L50 63H32V66H27V63H10C4.64975 63 0.280544 58.7983 0.0126953 53.5146L0 53V13C6.44277e-07 7.47715 4.47715 3 10 3H27V0H32V3ZM32 58H50C52.7614 58 55 55.7614 55 53V13C55 10.2386 52.7614 8 50 8H32V58ZM5 52V53C5 55.7614 7.23858 58 10 58H27V52H5ZM5 41V47H27V41H5ZM5 30V36H27V30H5ZM5 19V25H27V19H5ZM10 8C7.23858 8 5 10.2386 5 13V14H27V8H10Z" fill="white"/>
</svg>
