<svg width="14" height="14" viewBox="0 0 14 14" fill="none" xmlns="http://www.w3.org/2000/svg">
<path d="M10 0C11.0609 0 12.078 0.42173 12.8281 1.17188C13.5783 1.92202 14 2.93913 14 4V10C14 11.0609 13.5783 12.078 12.8281 12.8281C12.078 13.5783 11.0609 14 10 14H4C2.93913 14 1.92202 13.5783 1.17188 12.8281C0.42173 12.078 0 11.0609 0 10V4C0 2.93913 0.42173 1.92202 1.17188 1.17188C1.92202 0.42173 2.93913 0 4 0H10ZM9.11719 10.1338C8.85507 10.1316 8.60261 10.232 8.41406 10.4141C8.03901 10.789 7.53033 11 7 11C6.46967 11 5.96099 10.789 5.58594 10.4141C5.39739 10.232 5.14493 10.1316 4.88281 10.1338C4.6208 10.1361 4.36994 10.2406 4.18457 10.4258C3.99916 10.6112 3.89388 10.8628 3.8916 11.125C3.88943 11.3871 3.98981 11.6396 4.17188 11.8281C4.92199 12.578 5.93934 12.999 7 12.999C8.06066 12.999 9.07801 12.578 9.82812 11.8281C10.0102 11.6396 10.1106 11.3871 10.1084 11.125C10.1061 10.8628 10.0008 10.6112 9.81543 10.4258C9.63006 10.2406 9.3792 10.1361 9.11719 10.1338ZM3 5C2.73478 5 2.48051 5.10543 2.29297 5.29297C2.10543 5.48051 2 5.73478 2 6V8C2 8.26522 2.10543 8.51949 2.29297 8.70703C2.48051 8.89457 2.73478 9 3 9C3.26522 9 3.51949 8.89457 3.70703 8.70703C3.89457 8.51949 4 8.26522 4 8V6C4 5.73478 3.89457 5.48051 3.70703 5.29297C3.51949 5.10543 3.26522 5 3 5ZM11 5C10.7348 5 10.4805 5.10543 10.293 5.29297C10.1054 5.48051 10 5.73478 10 6V8C10 8.26522 10.1054 8.51949 10.293 8.70703C10.4805 8.89457 10.7348 9 11 9C11.2652 9 11.5195 8.89457 11.707 8.70703C11.8946 8.51949 12 8.26522 12 8V6C12 5.73478 11.8946 5.48051 11.707 5.29297C11.5195 5.10543 11.2652 5 11 5ZM2.16309 2.03613H1.07324L1.95508 2.67676L1.61816 3.71387L2.5 3.07324L3.38184 3.71387L3.04492 2.67676L3.92676 2.03613H2.83691L2.5 1L2.16309 2.03613Z" fill="#8DA5F3"/>
</svg>
