<svg width="16" height="16" viewBox="0 0 16 16" fill="none" xmlns="http://www.w3.org/2000/svg">
<path d="M14 10C14.5523 10 15 10.4477 15 11V14C15 14.5523 14.5523 15 14 15H2C1.44772 15 1 14.5523 1 14V11C1 10.4477 1.44772 10 2 10H14ZM8 0.5C8.27614 0.5 8.5 0.723858 8.5 1V7.79297L10.8281 5.46484C11.0234 5.26958 11.3399 5.26958 11.5352 5.46484C11.7304 5.66011 11.7304 5.97661 11.5352 6.17188L8.35352 9.35352C8.15825 9.54878 7.84175 9.54878 7.64648 9.35352L4.46484 6.17188C4.26958 5.97661 4.26958 5.66011 4.46484 5.46484C4.66011 5.26958 4.97661 5.26958 5.17188 5.46484L7.5 7.79297V1C7.5 0.723858 7.72386 0.5 8 0.5Z" fill="white"/>
</svg>
